<svg width="1000" height="1000" viewBox="0 0 700 700" fill="none" xmlns="http://www.w3.org/2000/svg">
<g clip-path="url(#clip0_12_10)">
<g filter="url(#filter0_i_12_10)">
<path d="M278.45 206.15C298.617 206.15 315.85 210 330.15 217.7C344.45 225.4 351.6 232.55 351.6 239.15C351.6 244.65 349.4 249.967 345 255.1C340.967 259.867 337.3 262.25 334 262.25C330.7 262.25 327.033 260.417 323 256.75C310.9 245.75 295.867 240.25 277.9 240.25C259.933 240.25 244.167 244.1 230.6 251.8C217.4 259.5 207.133 269.767 199.8 282.6C184.767 308.633 177.25 336.867 177.25 367.3C177.25 397.367 183.483 420.1 195.95 435.5C208.783 450.9 227.3 458.6 251.5 458.6C262.5 458.6 273.317 456.217 283.95 451.45C294.95 446.683 303.567 441.917 309.8 437.15C316.033 432.017 319.333 429.45 319.7 429.45C323.733 429.45 327.033 432.2 329.6 437.7C332.533 443.2 334 448.7 334 454.2C334 460.8 324.283 468.867 304.85 478.4C285.783 487.933 267.267 492.7 249.3 492.7C211.167 492.7 182.017 482.067 161.85 460.8C142.05 439.167 132.15 407.817 132.15 366.75C132.15 325.317 145.533 288.283 172.3 255.65C199.067 222.65 234.45 206.15 278.45 206.15ZM534.767 267.75C534.767 258.583 531.834 251.617 525.967 246.85C520.467 241.717 513.134 239.15 503.967 239.15C484.167 239.15 463.634 248.317 442.367 266.65C421.101 284.617 407.901 308.817 402.767 339.25C436.867 339.25 467.301 332.467 494.067 318.9C521.201 305.333 534.767 288.283 534.767 267.75ZM356.017 371.15C356.017 344.383 360.967 320 370.867 298C380.767 276 393.234 258.583 408.267 245.75C439.801 219.35 472.434 206.15 506.167 206.15C526.334 206.15 542.834 211.1 555.667 221C568.501 230.533 574.917 244.283 574.917 262.25C574.917 294.517 558.051 320.917 524.317 341.45C490.951 361.617 449.701 371.7 400.567 371.7C400.567 399.2 406.984 420.65 419.817 436.05C432.651 451.083 451.167 458.6 475.367 458.6C486.734 458.6 497.734 456.217 508.367 451.45C519.001 446.683 527.434 441.733 533.667 436.6L543.017 429.45C547.051 429.45 550.534 432.2 553.467 437.7C556.401 443.2 557.867 448.7 557.867 454.2C557.867 460.8 548.151 468.867 528.717 478.4C509.651 487.933 491.134 492.7 473.167 492.7C435.034 492.7 405.884 482.25 385.717 461.35C365.917 440.083 356.017 410.017 356.017 371.15Z" fill="#8CCB9A"/>
</g>
</g>
<defs>
<filter id="filter0_i_12_10" x="132.15" y="206.15" width="442.767" height="290.55" filterUnits="userSpaceOnUse" color-interpolation-filters="sRGB">
<feFlood flood-opacity="0" result="BackgroundImageFix"/>
<feBlend mode="normal" in="SourceGraphic" in2="BackgroundImageFix" result="shape"/>
<feColorMatrix in="SourceAlpha" type="matrix" values="0 0 0 0 0 0 0 0 0 0 0 0 0 0 0 0 0 0 127 0" result="hardAlpha"/>
<feOffset dy="4"/>
<feGaussianBlur stdDeviation="2"/>
<feComposite in2="hardAlpha" operator="arithmetic" k2="-1" k3="1"/>
<feColorMatrix type="matrix" values="0 0 0 0 0.165589 0 0 0 0 0.466667 0 0 0 0 0.159444 0 0 0 0.74 0"/>
<feBlend mode="normal" in2="shape" result="effect1_innerShadow_12_10"/>
</filter>
<clipPath id="clip0_12_10">
<rect width="700" height="700" fill="white"/>
</clipPath>
</defs>
</svg>
