<svg width="788" height="272" viewBox="0 0 788 272" fill="none" xmlns="http://www.w3.org/2000/svg">
<g filter="url(#filter0_i_3_5)">
<path d="M115.2 5.39999C140.6 5.39999 160.8 12.9 175.8 27.9C183 35.1 186.6 40.7 186.6 44.7C186.6 46.7 184.9 48.9 181.5 51.3C178.3 53.5 175.6 54.6 173.4 54.6C171.4 54.6 169 53 166.2 49.8C163.6 46.6 160.6 43.1 157.2 39.3C154 35.3 148.6 31.7 141 28.5C133.4 25.3 123.8 23.7 112.2 23.7C100.8 23.7 89.8 27.1 79.2 33.9C68.8 40.7 60.3 49.4 53.7 60C47.1 70.4 41.5 82.2 36.9 95.4C28.7 119.2 24.6 143.9 24.6 169.5C24.6 191.9 29.5 210.7 39.3 225.9C44.3 233.7 51.1 239.9 59.7 244.5C68.5 248.9 78.6 251.1 90 251.1C114 251.1 133.9 242.5 149.7 225.3C150.3 224.7 151.6 223.1 153.6 220.5C157.2 215.3 160.3 212.7 162.9 212.7C165.5 212.7 167.8 213.6 169.8 215.4C171.8 217 172.8 218.8 172.8 220.8C172.8 222.8 172.1 224.9 170.7 227.1C161.5 241.5 149.7 252.5 135.3 260.1C121.1 267.5 105.3 271.2 87.9 271.2C57.7 271.2 35.6 261.8 21.6 243C7.6 224.2 0.600001 199.2 0.600001 168C0.600001 128.8 9 93 25.8 60.6C34.2 44 46.1 30.7 61.5 20.7C76.9 10.5 94.8 5.39999 115.2 5.39999ZM284.74 148.5C284.74 143.5 283.14 139.7 279.94 137.1C276.94 134.3 272.94 132.9 267.94 132.9C257.14 132.9 245.94 137.9 234.34 147.9C222.74 157.7 215.54 170.9 212.74 187.5C231.34 187.5 247.94 183.8 262.54 176.4C277.34 169 284.74 159.7 284.74 148.5ZM187.24 204.9C187.24 190.3 189.94 177 195.34 165C200.74 153 207.54 143.5 215.74 136.5C232.94 122.1 250.74 114.9 269.14 114.9C280.14 114.9 289.14 117.6 296.14 123C303.14 128.2 306.64 135.7 306.64 145.5C306.64 163.1 297.44 177.5 279.04 188.7C260.84 199.7 238.34 205.2 211.54 205.2C211.54 220.2 215.04 231.9 222.04 240.3C229.04 248.5 239.14 252.6 252.34 252.6C258.54 252.6 264.54 251.3 270.34 248.7C276.14 246.1 280.74 243.4 284.14 240.6L289.24 236.7C291.44 236.7 293.34 238.2 294.94 241.2C296.54 244.2 297.34 247.2 297.34 250.2C297.34 253.8 292.04 258.2 281.44 263.4C271.04 268.6 260.94 271.2 251.14 271.2C230.34 271.2 214.44 265.5 203.44 254.1C192.64 242.5 187.24 226.1 187.24 204.9ZM323.421 271.2C320.421 271.2 318.321 270.8 317.121 270C315.921 269.2 315.321 267.6 315.321 265.2L345.921 8.69998C346.721 3.49999 350.621 0.899993 357.621 0.899993C364.821 0.899993 368.421 2.99999 368.421 7.19998L337.521 263.7C336.921 268.7 332.221 271.2 323.421 271.2ZM466.263 148.5C466.263 143.5 464.663 139.7 461.463 137.1C458.463 134.3 454.463 132.9 449.463 132.9C438.663 132.9 427.463 137.9 415.863 147.9C404.263 157.7 397.063 170.9 394.263 187.5C412.863 187.5 429.463 183.8 444.063 176.4C458.863 169 466.263 159.7 466.263 148.5ZM368.763 204.9C368.763 190.3 371.463 177 376.863 165C382.263 153 389.063 143.5 397.263 136.5C414.463 122.1 432.263 114.9 450.663 114.9C461.663 114.9 470.663 117.6 477.663 123C484.663 128.2 488.163 135.7 488.163 145.5C488.163 163.1 478.963 177.5 460.563 188.7C442.363 199.7 419.863 205.2 393.063 205.2C393.063 220.2 396.563 231.9 403.563 240.3C410.563 248.5 420.663 252.6 433.863 252.6C440.063 252.6 446.063 251.3 451.863 248.7C457.663 246.1 462.263 243.4 465.663 240.6L470.763 236.7C472.963 236.7 474.863 238.2 476.463 241.2C478.063 244.2 478.863 247.2 478.863 250.2C478.863 253.8 473.563 258.2 462.963 263.4C452.563 268.6 442.463 271.2 432.663 271.2C411.863 271.2 395.963 265.5 384.963 254.1C374.163 242.5 368.763 226.1 368.763 204.9ZM577.545 230.4C577.545 241.2 573.345 250.7 564.945 258.9C556.545 267.1 545.845 271.2 532.845 271.2C519.845 271.2 508.445 269 498.645 264.6C488.845 260.2 483.945 256.3 483.945 252.9C483.945 249.5 484.645 246.3 486.045 243.3C487.645 240.1 489.845 238.5 492.645 238.5C492.845 238.5 494.445 239.7 497.445 242.1C500.645 244.3 505.145 246.6 510.945 249C516.745 251.4 522.845 252.6 529.245 252.6C535.645 252.6 541.445 251 546.645 247.8C552.045 244.6 554.745 240 554.745 234C554.745 227.8 552.845 222.2 549.045 217.2C545.445 212 540.945 207.4 535.545 203.4C530.145 199.2 524.745 195 519.345 190.8C513.945 186.4 509.345 181.2 505.545 175.2C501.945 169 500.145 162.4 500.145 155.4C500.145 144.6 504.145 135.2 512.145 127.2C520.345 119 530.045 114.9 541.245 114.9C552.445 114.9 561.445 116.4 568.245 119.4C575.045 122.2 578.445 125.2 578.445 128.4C578.445 131.6 577.645 134.7 576.045 137.7C574.645 140.7 572.745 142.2 570.345 142.2C570.145 142.2 568.945 141.5 566.745 140.1C559.745 135.7 552.445 133.5 544.845 133.5C537.245 133.5 531.445 135.3 527.445 138.9C523.645 142.3 521.745 146.8 521.745 152.4C521.745 158 523.645 163.2 527.445 168C531.245 172.8 535.845 177.3 541.245 181.5C546.845 185.7 552.345 190.1 557.745 194.7C563.345 199.1 568.045 204.4 571.845 210.6C575.645 216.8 577.545 223.4 577.545 230.4ZM602.166 119.1H619.866L625.266 72.9C625.666 69.9 627.566 67.5 630.966 65.7C634.366 63.9 637.666 63 640.866 63C644.066 63 646.066 63.2 646.866 63.6C647.666 64 648.066 65 648.066 66.6L641.766 119.1H669.666C674.266 119.1 676.566 122.1 676.566 128.1C676.566 130.7 675.666 133.2 673.866 135.6C672.066 138 669.966 139.2 667.566 139.2H639.066L631.266 204.9C630.266 212.9 629.766 220.7 629.766 228.3C629.766 235.9 630.566 243.3 632.166 250.5C633.966 257.7 634.866 261.8 634.866 262.8C634.866 265.2 632.966 267.2 629.166 268.8C625.566 270.4 622.066 271.2 618.666 271.2C615.466 271.2 612.766 267.3 610.566 259.5C608.566 251.5 607.566 243.3 607.566 234.9C607.566 226.3 608.166 216.3 609.366 204.9L617.166 139.2H600.066C595.666 139.2 593.466 136.3 593.466 130.5C593.466 127.7 594.266 125.1 595.866 122.7C597.666 120.3 599.766 119.1 602.166 119.1ZM688.373 230.1C688.373 236.1 690.373 241.2 694.373 245.4C698.573 249.4 704.073 251.4 710.873 251.4C723.273 251.4 733.773 245.2 742.373 232.8C750.973 220.2 756.573 206 759.173 190.2C733.573 192.2 715.373 196.6 704.573 203.4C693.773 210.2 688.373 219.1 688.373 230.1ZM787.673 149.4C787.673 154.8 785.773 168.2 781.973 189.6C778.373 210.8 776.573 225.4 776.573 233.4C776.573 241.4 777.073 248 778.073 253.2C779.273 258.4 779.873 261.6 779.873 262.8C779.873 265.2 777.873 267.2 773.873 268.8C769.873 270.4 766.073 271.2 762.473 271.2C758.073 271.2 755.873 262.2 755.873 244.2V236.4C750.073 247.8 742.373 256.5 732.773 262.5C723.173 268.3 713.073 271.2 702.473 271.2C691.873 271.2 682.873 268 675.473 261.6C668.273 255.2 664.673 246.2 664.673 234.6C664.673 218 672.273 204 687.473 192.6C702.873 181.2 728.073 174.4 763.073 172.2C764.073 166.2 764.573 160 764.573 153.6C764.573 141.2 755.373 135 736.973 135C727.773 135 718.373 136.9 708.773 140.7C699.373 144.5 694.473 146.4 694.073 146.4C691.473 146.4 689.373 144.9 687.773 141.9C686.173 138.7 685.373 135.4 685.373 132C685.373 128.6 691.573 124.9 703.973 120.9C716.373 116.9 728.673 114.9 740.873 114.9C753.073 114.9 763.873 117.7 773.273 123.3C782.873 128.7 787.673 137.4 787.673 149.4Z" fill="#8CCB9A"/>
</g>
<defs>
<filter id="filter0_i_3_5" x="0.599976" y="0.900024" width="787.073" height="274.3" filterUnits="userSpaceOnUse" color-interpolation-filters="sRGB">
<feFlood flood-opacity="0" result="BackgroundImageFix"/>
<feBlend mode="normal" in="SourceGraphic" in2="BackgroundImageFix" result="shape"/>
<feColorMatrix in="SourceAlpha" type="matrix" values="0 0 0 0 0 0 0 0 0 0 0 0 0 0 0 0 0 0 127 0" result="hardAlpha"/>
<feOffset dy="4"/>
<feGaussianBlur stdDeviation="2"/>
<feComposite in2="hardAlpha" operator="arithmetic" k2="-1" k3="1"/>
<feColorMatrix type="matrix" values="0 0 0 0 0.165589 0 0 0 0 0.466667 0 0 0 0 0.159444 0 0 0 0.74 0"/>
<feBlend mode="normal" in2="shape" result="effect1_innerShadow_3_5"/>
</filter>
</defs>
</svg>
